<svg xmlns="http://www.w3.org/2000/svg" width="29" height="19" viewBox="0 0 29 19"><g transform="translate(-7644 -1650.424)"><g transform="translate(7644 1650.424)" fill="none" stroke="#9e258d" stroke-width="0.3"><rect width="29" height="19" rx="4" stroke="none"/><rect x="0.15" y="0.15" width="28.7" height="18.7" rx="3.85" fill="none"/></g><g transform="translate(7647 1651.424)" fill="none" stroke="#9e258d" stroke-width="0.3"><rect width="10" height="8" stroke="none"/><rect x="0.15" y="0.15" width="9.7" height="7.7" fill="none"/></g><g transform="translate(7660 1660.424)" fill="none" stroke="#9e258d" stroke-width="0.3"><rect width="10" height="7" stroke="none"/><rect x="0.15" y="0.15" width="9.7" height="6.7" fill="none"/></g><g transform="translate(7659.985 1651.756)"><g transform="translate(0.015 -0.332)" fill="none" stroke="#9e258d" stroke-width="0.3"><rect width="10" height="1" stroke="none"/><rect x="0.15" y="0.15" width="9.7" height="0.7" fill="none"/></g><g transform="translate(0.015 1.668)" fill="none" stroke="#9e258d" stroke-width="0.3"><rect width="10" height="1" stroke="none"/><rect x="0.15" y="0.15" width="9.7" height="0.7" fill="none"/></g><g transform="translate(0.015 3.668)" fill="none" stroke="#9e258d" stroke-width="0.3"><rect width="10" height="1" stroke="none"/><rect x="0.15" y="0.15" width="9.7" height="0.7" fill="none"/></g><g transform="translate(0.015 4.668)" fill="none" stroke="#9e258d" stroke-width="0.3"><rect width="10" height="1" stroke="none"/><rect x="0.15" y="0.15" width="9.7" height="0.7" fill="none"/></g><g transform="translate(0.015 6.668)" fill="none" stroke="#9e258d" stroke-width="0.3"><rect width="10" height="1" stroke="none"/><rect x="0.15" y="0.15" width="9.7" height="0.7" fill="none"/></g></g><g transform="translate(7647.366 1660.169)"><g transform="translate(-0.365 0.255)" fill="none" stroke="#9e258d" stroke-width="0.3"><rect width="10" height="1" stroke="none"/><rect x="0.15" y="0.15" width="9.7" height="0.7" fill="none"/></g><g transform="translate(-0.365 1.255)" fill="none" stroke="#9e258d" stroke-width="0.3"><rect width="10" height="1" stroke="none"/><rect x="0.15" y="0.15" width="9.7" height="0.7" fill="none"/></g><g transform="translate(-0.365 3.255)" fill="none" stroke="#9e258d" stroke-width="0.3"><rect width="10" height="1" stroke="none"/><rect x="0.15" y="0.15" width="9.7" height="0.7" fill="none"/></g><g transform="translate(-0.365 5.255)" fill="none" stroke="#9e258d" stroke-width="0.3"><rect width="10" height="1" stroke="none"/><rect x="0.15" y="0.15" width="9.7" height="0.7" fill="none"/></g><g transform="translate(-0.365 6.255)" fill="none" stroke="#9e258d" stroke-width="0.3"><rect width="10" height="1" stroke="none"/><rect x="0.15" y="0.15" width="9.7" height="0.7" fill="none"/></g></g></g></svg>