<svg xmlns="http://www.w3.org/2000/svg" width="71.89" height="93.691" viewBox="0 0 71.89 93.691"><g class="grupi" transform="translate(-56.632 -42.698)"><path d="M106.18,99.414a4.286,4.286,0,0,1-2.385-.74l-8.225-6-8.225,6a4.213,4.213,0,0,1-4.771,0,4.1,4.1,0,0,1-1.481-4.524L84.3,84.444l-8.225-5.922A4.042,4.042,0,0,1,78.46,71.2h10.2l3.126-9.706a4.076,4.076,0,0,1,3.866-2.8,4.156,4.156,0,0,1,3.866,2.8l3.043,9.788h10.2a4.156,4.156,0,0,1,3.866,2.8,4.06,4.06,0,0,1-1.481,4.524l-8.225,6,3.208,9.706a3.94,3.94,0,0,1-1.481,4.524,6.045,6.045,0,0,1-2.468.576ZM95.652,88.968a1.581,1.581,0,0,1,.987.329l9.212,6.745A.739.739,0,0,0,107,95.219l-3.619-10.858a1.561,1.561,0,0,1,.576-1.81l9.212-6.663a.745.745,0,0,0,.247-.823.719.719,0,0,0-.74-.494H101.327a1.681,1.681,0,0,1-1.563-1.152L96.31,62.564a.742.742,0,0,0-1.4,0L91.457,73.422a1.681,1.681,0,0,1-1.563,1.152H78.543a.79.79,0,0,0-.74.494.745.745,0,0,0,.247.823l9.212,6.663a1.561,1.561,0,0,1,.576,1.81L84.3,95.137a.745.745,0,0,0,.247.823.638.638,0,0,0,.9,0l9.212-6.745a2.875,2.875,0,0,1,.987-.247Z" transform="translate(-3.157 -2.839)" fill="#9e258d"/><path d="M108.452,136.385a1.436,1.436,0,0,1-.987-.329L92.742,124.623,78.018,136.056a1.638,1.638,0,0,1-1.727.165,1.554,1.554,0,0,1-.9-1.481V110.146a35.93,35.93,0,1,1,34.711-.165V134.74a1.554,1.554,0,0,1-.9,1.481,2.4,2.4,0,0,1-.74.165ZM92.742,120.922a1.436,1.436,0,0,1,.987.329l13.078,10.117v-22.62a1.862,1.862,0,0,1,.823-1.234,32.5,32.5,0,1,0-29.941.247,1.554,1.554,0,0,1,.9,1.481V131.45l13.078-10.117A1.362,1.362,0,0,1,92.742,120.922Z" transform="translate(0)" fill="#9e258d"/></g></svg>