<svg xmlns="http://www.w3.org/2000/svg" width="41" height="41" viewBox="0 0 41 41"><g transform="translate(-7963 -4260)"><g transform="translate(7963 4260)" fill="none" stroke="#9e258d" stroke-width="1"><circle cx="20.5" cy="20.5" r="20.5" stroke="none"/><circle cx="20.5" cy="20.5" r="20" fill="none"/></g><g transform="translate(-65.621 4.379)"><line y2="17.243" transform="translate(8049.121 4267.5)" fill="none" stroke="#9e258d" stroke-linecap="round" stroke-width="2"/><line y2="17.243" transform="translate(8057.743 4276.121) rotate(90)" fill="none" stroke="#9e258d" stroke-linecap="round" stroke-width="2"/></g><g transform="translate(7965 4262)" fill="none" stroke="#9e258d" stroke-width="1"><circle cx="18.5" cy="18.5" r="18.5" stroke="none"/><circle cx="18.5" cy="18.5" r="18" fill="none"/></g><g transform="translate(-51.621 0.379)" opacity="0.45"><line y2="4.223" transform="translate(8042.612 4267.5)" fill="none" stroke="#9e258d" stroke-linecap="round" stroke-width="1"/><line y2="4.223" transform="translate(8044.724 4269.612) rotate(90)" fill="none" stroke="#9e258d" stroke-linecap="round" stroke-width="1"/></g><g transform="translate(-68.621 5.602)" opacity="0.76"><line y2="4.223" transform="translate(8042.612 4267.5)" fill="none" stroke="#9e258d" stroke-linecap="round" stroke-width="1"/><line y2="4.223" transform="translate(8044.724 4269.612) rotate(90)" fill="none" stroke="#9e258d" stroke-linecap="round" stroke-width="1"/></g><g transform="translate(-50.621 18.379)" opacity="0.61"><line y2="4.223" transform="translate(8042.612 4267.5)" fill="none" stroke="#9e258d" stroke-linecap="round" stroke-width="1"/><line y2="4.223" transform="translate(8044.724 4269.612) rotate(90)" fill="none" stroke="#9e258d" stroke-linecap="round" stroke-width="1"/></g><g transform="translate(-67.621 20.49)" opacity="0.29"><line y2="4.223" transform="translate(8042.612 4267.5)" fill="none" stroke="#9e258d" stroke-linecap="round" stroke-width="1"/><line y2="4.223" transform="translate(8044.724 4269.612) rotate(90)" fill="none" stroke="#9e258d" stroke-linecap="round" stroke-width="1"/></g></g></svg>