<svg xmlns="http://www.w3.org/2000/svg" xmlns:xlink="http://www.w3.org/1999/xlink" width="138.973" height="56.272" viewBox="0 0 138.973 56.272"><defs><clipPath id="a"><rect width="138.973" height="56.272" fill="none"/></clipPath><clipPath id="b"><rect width="76.569" height="17.592" fill="none"/></clipPath></defs><g transform="translate(0 0)"><g transform="translate(0 0)" clip-path="url(#a)"><path d="M51.5,12.392h0A12.392,12.392,0,0,0,39.109,0H21.57A.573.573,0,0,0,21,.573v12.2a.571.571,0,0,0,.571.571h8.388a.572.572,0,0,0,.573-.571V8.2a.571.571,0,0,1,.571-.571H37.1a4.853,4.853,0,0,1,4.873,4.857A4.766,4.766,0,0,1,37.2,17.157H10.1a.571.571,0,0,1-.571-.571V.573A.574.574,0,0,0,8.959,0H.571A.573.573,0,0,0,0,.573v33.17a.571.571,0,0,0,.571.571H8.959a.573.573,0,0,0,.573-.571V25.355a.571.571,0,0,1,.571-.571h25.11a.57.57,0,0,1,.473.251L41.8,34.063a.57.57,0,0,0,.473.251h8.15a.572.572,0,0,0,.475-.891l-6.247-9.23a.571.571,0,0,1,.21-.827A12.385,12.385,0,0,0,51.5,12.392" transform="translate(0 0.001)" fill="#353572"/><path d="M14.942,25.288H23.33a.571.571,0,0,0,.571-.571V20.141a.573.573,0,0,0-.571-.573H14.942a.573.573,0,0,0-.571.573v4.575a.571.571,0,0,0,.571.571" transform="translate(6.629 9.027)" fill="#353572"/><path d="M114.635,10.327a17.236,17.236,0,0,0-14.359.136A12.645,12.645,0,0,0,95.2,14.98a11.81,11.81,0,0,0-.748,1.375l-.378.82-.371.8-.342-.815-.351-.833a10.862,10.862,0,0,0-.867-1.657,11.835,11.835,0,0,0-4.966-4.344,17.236,17.236,0,0,0-14.359.136,12.645,12.645,0,0,0-5.078,4.517c-.162.254-.324.536-.494.859l-.383.731-.374.715-.327-.738-.335-.754c-.175-.395-.33-.712-.49-1a11.3,11.3,0,0,0-4.358-4.423,12.218,12.218,0,0,0-6.048-1.546c-2.719,0-4.806.681-6.2,2.024l-.675.65-.661.636V0H38V34.314h8.86V30.432l.68.75.694.766c1.422,1.571,3.675,2.367,6.7,2.367a12.218,12.218,0,0,0,6.048-1.546,11.257,11.257,0,0,0,4.356-4.445c.168-.3.329-.633.507-1.042l.33-.76.323-.741.38.715.387.731c.168.319.326.592.484.839l.016.026a12.632,12.632,0,0,0,5.307,4.558,18.666,18.666,0,0,0,8.107,1.666c4.543,0,8.068-1.147,10.488-3.408l-4.7-4.656a10.242,10.242,0,0,1-2.246,1.192,9.511,9.511,0,0,1-3.2.478,7.491,7.491,0,0,1-3.8-.894,5.212,5.212,0,0,1-2.28-2.66l-.215-.545-.21-.533h18.44l.06.319.06.326a11.625,11.625,0,0,0,1.644,4.157,12.636,12.636,0,0,0,5.309,4.558,18.661,18.661,0,0,0,8.107,1.666c4.542,0,8.068-1.147,10.486-3.408l-4.7-4.656a10.234,10.234,0,0,1-2.245,1.192,9.514,9.514,0,0,1-3.206.478,7.485,7.485,0,0,1-3.794-.894,5.208,5.208,0,0,1-2.281-2.66l-.215-.545-.21-.533h18.867c.085-1.36.1-1.678.1-1.742a12.5,12.5,0,0,0-1.84-6.875,11.848,11.848,0,0,0-4.967-4.344M56.9,25.866a5.02,5.02,0,0,1-7.393,0,6.28,6.28,0,0,1-1.413-4.32,6.192,6.192,0,0,1,1.419-4.3,5.069,5.069,0,0,1,7.381,0,6.185,6.185,0,0,1,1.419,4.3,6.282,6.282,0,0,1-1.413,4.32m18.114-6.2.095-.468.1-.478A4.851,4.851,0,0,1,80.255,14.6a5.031,5.031,0,0,1,3.32,1.114,5.156,5.156,0,0,1,1.724,3l.1.481.1.471Zm27.459,0,.095-.468.1-.478a5.255,5.255,0,0,1,8.366-3,5.158,5.158,0,0,1,1.723,3l.1.481.1.471Z" transform="translate(17.529 0.001)" fill="#353572"/><g transform="translate(31.201 38.68)" style="isolation:isolate"><g clip-path="url(#b)"><text transform="translate(0 10.308)" fill="#353572" font-size="12" font-family="Poppins-Medium, Poppins" font-weight="500"><tspan x="0" y="0" letter-spacing="0.2em">ACA</tspan><tspan y="0" letter-spacing="0.199em">D</tspan><tspan y="0" letter-spacing="0.2em">EM</tspan><tspan y="0">Y</tspan></text></g></g><path d="M91.383,0V.638H90.015V4.9h-.8V.638h-1.36V0Z" transform="translate(40.528 0.001)" fill="#353572"/><path d="M96.706.052V4.878h-.8V1.261L94.513,4.878h-.7l-1.4-3.617V4.878h-.792V.052h.957l1.6,3.853L95.747.052Z" transform="translate(42.266 0.025)" fill="#353572"/></g></g></svg>