<svg xmlns="http://www.w3.org/2000/svg" width="21.955" height="21.956" viewBox="0 0 21.955 21.956">
  <g id="Group_81" data-name="Group 81" transform="translate(-1054.791 -2230)">
    <path id="path7750" d="M1065.769,2230a10.978,10.978,0,1,1-7.763,3.216,10.908,10.908,0,0,1,7.763-3.216Zm7.163,3.815a10.118,10.118,0,1,0,2.972,7.163,10.286,10.286,0,0,0-2.972-7.163Z" fill="#666"/>
    <path id="path7822" d="M1066.589,2238.738v-.909a.475.475,0,0,1,.488-.533h1.264v-1.929h-1.73a2.171,2.171,0,0,0-2.351,2.351v1.02h-1.108v2.24h1.131v5.611h2.24v-5.611h1.641l.066-.887.133-1.353Z" fill="#666" style="isolation: isolate"/>
  </g>
</svg>
