<svg xmlns="http://www.w3.org/2000/svg" xmlns:xlink="http://www.w3.org/1999/xlink" width="559.671" height="467.962" viewBox="0 0 559.671 467.962"><defs><clipPath id="a"><path d="M1156.506,1513.506H931.34a30,30,0,0,0-25.981,15l-112.583,195a30,30,0,0,0,0,30l112.583,195a30,30,0,0,0,25.981,15h225.166a30,30,0,0,0,25.981-15l112.583-195a30,30,0,0,0,0-30l-112.583-195A30,30,0,0,0,1156.506,1513.506Z" fill="none"/></clipPath></defs><g transform="translate(-788.757 -1513.506)"><g clip-path="url(#a)"><image width="510.525" height="450.112" transform="translate(788.673 1513.454)" xlink:href="Group%20155-image.png"/></g><path d="M1318.759,1640.361h-39.338a10,10,0,0,0-8.661,5l-19.669,34.068a10,10,0,0,0,0,10l19.669,34.067a10,10,0,0,0,8.661,5h39.338a10,10,0,0,0,8.66-5l19.669-34.067a10,10,0,0,0,0-10l-19.669-34.068A10,10,0,0,0,1318.759,1640.361Z" fill="#d12329"/><path d="M888.153,1906.161H856.222a10,10,0,0,0-8.66,5L831.6,1938.815a10,10,0,0,0,0,10l15.966,27.653a10,10,0,0,0,8.66,5h31.931a10,10,0,0,0,8.66-5l15.966-27.653a10,10,0,0,0,0-10l-15.966-27.654A10,10,0,0,0,888.153,1906.161Z" fill="#76b741"/></g></svg>