<svg xmlns="http://www.w3.org/2000/svg" width="21.956" height="21.956" viewBox="0 0 21.956 21.956">
  <g id="Group_82" data-name="Group 82" transform="translate(-1116.266 -2230)">
    <path id="path7752" d="M1127.244,2230a10.98,10.98,0,1,1-7.762,3.216,10.867,10.867,0,0,1,7.762-3.216Zm7.164,3.815a10.12,10.12,0,1,0,2.971,7.163,10.281,10.281,0,0,0-2.971-7.163Z" fill="#666"/>
    <path id="path7890" d="M1124.428,2240.978a2.817,2.817,0,1,1,2.816,2.816,2.821,2.821,0,0,1-2.816-2.816Zm5.722-5.5h-5.811a2.613,2.613,0,0,0-2.595,2.595v5.81a2.613,2.613,0,0,0,2.595,2.595h5.811a2.6,2.6,0,0,0,2.594-2.595v-5.81a2.6,2.6,0,0,0-2.594-2.595Zm-5.811.643h5.811a1.94,1.94,0,0,1,1.951,1.952v5.81a1.94,1.94,0,0,1-1.951,1.952h-5.811a1.941,1.941,0,0,1-1.952-1.952v-5.81a1.97,1.97,0,0,1,1.952-1.952Zm6.387.821a.577.577,0,1,0,.577.576.587.587,0,0,0-.577-.576Zm.067,4.036a3.548,3.548,0,1,0-3.549,3.548,3.559,3.559,0,0,0,3.549-3.548Z" fill="#666" style="isolation: isolate"/>
  </g>
</svg>
