<svg xmlns="http://www.w3.org/2000/svg" width="21.955" height="21.956" viewBox="0 0 21.955 21.956">
  <g id="Group_79" data-name="Group 79" transform="translate(-1085.529 -2230)">
    <path id="path7784" d="M1096.506,2230a10.978,10.978,0,1,1-7.762,3.216,10.9,10.9,0,0,1,7.762-3.216Zm7.164,3.815a10.121,10.121,0,1,0,2.971,7.163,10.091,10.091,0,0,0-2.971-7.163Z" fill="#666"/>
    <path id="path7836" d="M1091.561,2241.089v4.857h2.306v-6.632h-2.306Zm9.847.266a2.078,2.078,0,0,0-2.418-2.041,2.011,2.011,0,0,0-1.929.888h-.023v-.888H1095.2v6.609h1.929v-3.282c0-.865.178-1.685,1.22-1.685,1.065,0,1.153.975,1.153,1.752v3.215h1.974v-3.637a6.32,6.32,0,0,0-.066-.931h0Zm-8.694-5.345a1.153,1.153,0,1,0,1.153,1.153,1.145,1.145,0,0,0-1.153-1.153Z" fill="#666" style="isolation: isolate"/>
  </g>
</svg>
