<svg xmlns="http://www.w3.org/2000/svg" xmlns:xlink="http://www.w3.org/1999/xlink" width="389" height="133.983" viewBox="0 0 389 133.983"><defs><clipPath id="a"><rect width="200" height="80.983" fill="#fbfbfb"/></clipPath><clipPath id="b"><rect width="110.193" height="25.317" fill="#fbfbfb"/></clipPath></defs><g transform="translate(40 -810.017)"><g transform="translate(54.5 810.018)"><g transform="translate(0 0)" clip-path="url(#a)"><path d="M74.116,17.833h0A17.833,17.833,0,0,0,56.283,0H31.042a.824.824,0,0,0-.822.824V18.382a.822.822,0,0,0,.822.822H43.114a.823.823,0,0,0,.824-.822V11.8a.822.822,0,0,1,.822-.822h8.624a6.984,6.984,0,0,1,7.014,6.99,6.859,6.859,0,0,1-6.858,6.725h-39a.822.822,0,0,1-.822-.822V.824A.826.826,0,0,0,12.894,0H.822A.824.824,0,0,0,0,.824V48.56a.822.822,0,0,0,.822.822H12.894a.824.824,0,0,0,.824-.822V36.489a.822.822,0,0,1,.822-.822H50.676a.821.821,0,0,1,.681.362l8.8,12.992a.821.821,0,0,0,.681.362H72.564a.823.823,0,0,0,.683-1.283l-8.99-13.283a.822.822,0,0,1,.3-1.19,17.824,17.824,0,0,0,9.556-15.794" transform="translate(0 0.001)" fill="#fbfbfb"/><path d="M15.193,27.8H27.265a.822.822,0,0,0,.822-.822V20.392a.824.824,0,0,0-.822-.824H15.193a.824.824,0,0,0-.822.824v6.585a.822.822,0,0,0,.822.822" transform="translate(15.851 21.584)" fill="#fbfbfb"/><path d="M148.288,14.862a24.8,24.8,0,0,0-20.664.2,18.2,18.2,0,0,0-7.308,6.5,16.993,16.993,0,0,0-1.077,1.979l-.545,1.18-.534,1.155-.492-1.173-.5-1.2a15.632,15.632,0,0,0-1.247-2.385,17.032,17.032,0,0,0-7.146-6.252,24.8,24.8,0,0,0-20.664.2,18.2,18.2,0,0,0-7.308,6.5c-.233.366-.467.772-.711,1.237l-.551,1.052L79,24.874l-.471-1.062-.482-1.085c-.252-.568-.475-1.024-.7-1.432a16.26,16.26,0,0,0-6.271-6.366,17.583,17.583,0,0,0-8.7-2.225c-3.914,0-6.917.98-8.923,2.913l-.972.936-.951.915V0H38V49.383H50.751V43.8l.978,1.079,1,1.1c2.046,2.261,5.289,3.407,9.638,3.407a17.583,17.583,0,0,0,8.7-2.225,16.2,16.2,0,0,0,6.269-6.4c.242-.433.473-.911.73-1.5l.475-1.094.465-1.066.547,1.028.557,1.052c.242.458.469.852.7,1.207l.023.038a18.179,18.179,0,0,0,7.638,6.559,26.863,26.863,0,0,0,11.667,2.4c6.538,0,11.611-1.651,15.093-4.9l-6.759-6.7a14.74,14.74,0,0,1-3.232,1.716,13.688,13.688,0,0,1-4.612.688A10.78,10.78,0,0,1,95.166,38.9a7.5,7.5,0,0,1-3.281-3.827l-.309-.784-.3-.768h26.538l.086.458.086.469a16.73,16.73,0,0,0,2.366,5.983,18.185,18.185,0,0,0,7.64,6.559,26.856,26.856,0,0,0,11.667,2.4c6.536,0,11.611-1.651,15.091-4.9l-6.759-6.7a14.728,14.728,0,0,1-3.23,1.716,13.692,13.692,0,0,1-4.614.688,10.772,10.772,0,0,1-5.459-1.287,7.5,7.5,0,0,1-3.283-3.827l-.309-.784-.3-.768h27.152c.122-1.958.141-2.414.141-2.507a17.989,17.989,0,0,0-2.648-9.895,17.05,17.05,0,0,0-7.148-6.252M65.2,37.225a7.224,7.224,0,0,1-10.639,0,9.037,9.037,0,0,1-2.034-6.216,8.911,8.911,0,0,1,2.042-6.189,7.294,7.294,0,0,1,10.622,0,8.9,8.9,0,0,1,2.042,6.189A9.041,9.041,0,0,1,65.2,37.225M91.273,28.3l.137-.673.139-.688a6.981,6.981,0,0,1,7.262-5.924,7.24,7.24,0,0,1,4.778,1.6,7.42,7.42,0,0,1,2.482,4.313l.145.692.141.677Zm39.518,0,.137-.673.141-.688a7.563,7.563,0,0,1,12.04-4.322,7.423,7.423,0,0,1,2.479,4.313l.145.692.143.677Z" transform="translate(41.914 0.001)" fill="#fbfbfb"/><g transform="translate(44.903 55.665)" style="isolation:isolate"><g clip-path="url(#b)"><text transform="translate(0 13.126)" fill="#fbfbfb" font-size="16" font-family="Poppins-Medium, Poppins" font-weight="500"><tspan x="0" y="0" letter-spacing="0.2em">ACA</tspan><tspan y="0" letter-spacing="0.199em">D</tspan><tspan y="0" letter-spacing="0.2em">EM</tspan><tspan y="0">Y</tspan></text></g></g><path d="M92.932,0V.919H90.964V7.055h-1.15V.919H87.855V0Z" transform="translate(96.905 0.001)" fill="#fbfbfb"/><path d="M98.938.052V7h-1.15v-5.2L95.781,7h-1l-2.017-5.2V7h-1.14V.052H93L95.3,5.6,97.558.052Z" transform="translate(101.061 0.059)" fill="#fbfbfb"/></g></g><text transform="translate(349 912)" fill="#fff" font-size="20" font-family="Poppins-Regular, Poppins"><tspan x="-388.88" y="0">Akademinë e liderëve të ardhshëm për</tspan><tspan x="-349.62" y="25">Bruime Njerëzore dhe Menaxhment</tspan></text></g></svg>