<svg xmlns="http://www.w3.org/2000/svg" width="95.102" height="36.627" viewBox="0 0 95.102 36.627">
  <g id="Group_96" data-name="Group 96" transform="translate(-702.449 -43.227)">
    <g id="Group_93" data-name="Group 93">
      <g id="Group_92" data-name="Group 92">
        <path id="Path_32" data-name="Path 32" d="M737.692,51.707h0a8.48,8.48,0,0,0-8.479-8.48h-12a.392.392,0,0,0-.392.392v8.349a.392.392,0,0,0,.392.391h5.74a.391.391,0,0,0,.391-.391V48.837a.392.392,0,0,1,.392-.392h4.1a3.321,3.321,0,0,1,3.334,3.325,3.262,3.262,0,0,1-3.261,3.2H709.363a.391.391,0,0,1-.391-.391V43.619a.391.391,0,0,0-.391-.392H702.84a.391.391,0,0,0-.391.392v22.7a.391.391,0,0,0,.391.391h5.741a.391.391,0,0,0,.391-.391v-5.74a.391.391,0,0,1,.391-.391h17.183a.392.392,0,0,1,.325.172l4.182,6.178a.39.39,0,0,0,.324.172h5.578a.391.391,0,0,0,.324-.61L733,59.783a.392.392,0,0,1,.144-.566A8.476,8.476,0,0,0,737.692,51.707Z" fill="#353572"/>
        <rect id="Rectangle_58" data-name="Rectangle 58" width="6.523" height="3.914" rx="0.391" transform="translate(716.819 62.796)" fill="#353572"/>
      </g>
      <path id="Path_33" data-name="Path 33" d="M792.893,50.295a11.795,11.795,0,0,0-9.826.093,8.645,8.645,0,0,0-3.475,3.09,8.093,8.093,0,0,0-.512.941l-.26.562-.253.548-.235-.557-.24-.57a7.383,7.383,0,0,0-.592-1.134,8.1,8.1,0,0,0-3.4-2.973,11.793,11.793,0,0,0-9.825.093,8.645,8.645,0,0,0-3.475,3.09c-.112.175-.222.367-.338.588l-.262.5-.257.489-.224-.505-.229-.517c-.119-.27-.226-.486-.334-.68a7.728,7.728,0,0,0-2.983-3.027,8.354,8.354,0,0,0-4.138-1.058,5.914,5.914,0,0,0-4.243,1.385l-.463.445-.452.435V43.227H740.45V66.709h6.063V64.053l.465.513.475.524a5.915,5.915,0,0,0,4.583,1.619,8.354,8.354,0,0,0,4.138-1.058,7.691,7.691,0,0,0,2.982-3.041c.115-.207.225-.433.347-.714l.226-.519.221-.507.259.489.266.5c.115.217.223.4.33.573l.012.018a8.646,8.646,0,0,0,3.632,3.12A12.774,12.774,0,0,0,770,66.709c3.108,0,5.521-.784,7.177-2.332l-3.214-3.185a7.075,7.075,0,0,1-1.537.816,6.537,6.537,0,0,1-2.194.326,5.122,5.122,0,0,1-2.6-.612,3.554,3.554,0,0,1-1.56-1.82l-.147-.373-.144-.364H778.4l.04.217.042.223a7.931,7.931,0,0,0,1.125,2.845,8.64,8.64,0,0,0,3.632,3.12,12.773,12.773,0,0,0,5.548,1.139c3.109,0,5.521-.784,7.177-2.332l-3.214-3.185a7.029,7.029,0,0,1-1.537.816,6.535,6.535,0,0,1-2.193.326,5.126,5.126,0,0,1-2.6-.612,3.559,3.559,0,0,1-1.56-1.82l-.147-.373-.144-.364h12.911c.058-.932.067-1.148.067-1.192a8.546,8.546,0,0,0-1.26-4.7A8.105,8.105,0,0,0,792.893,50.295ZM753.385,60.929a3.433,3.433,0,0,1-5.058,0,4.3,4.3,0,0,1-.968-2.955,4.229,4.229,0,0,1,.972-2.943,3.466,3.466,0,0,1,5.051,0,4.237,4.237,0,0,1,.971,2.943A4.3,4.3,0,0,1,753.385,60.929Zm12.4-4.245.065-.32.067-.328a3.6,3.6,0,0,1,5.725-2.055,3.535,3.535,0,0,1,1.179,2.052l.069.329.068.322Zm18.792,0,.065-.32.066-.328a3.6,3.6,0,0,1,5.725-2.055,3.537,3.537,0,0,1,1.18,2.052l.069.329.067.322Z" fill="#353572"/>
    </g>
    <g id="text6605">
      <g id="Group_94" data-name="Group 94">
        <text id="ACADEMY" transform="translate(749.161 76.854)" fill="#353572" font-size="8.386" font-family="Poppins-Medium, Poppins" font-weight="500" letter-spacing="0.2em" style="isolation: isolate"><tspan x="-25.524" y="0">ACADEMY</tspan></text>
      </g>
    </g>
    <g id="Group_95" data-name="Group 95">
      <path id="Path_34" data-name="Path 34" d="M792.719,43.227v.437h-.936v2.918h-.547V43.664H790.3v-.437Z" fill="#353572"/>
      <path id="Path_35" data-name="Path 35" d="M797.551,43.28v3.3H797V44.106l-.954,2.476h-.476l-.96-2.476v2.476h-.541v-3.3h.655l1.093,2.637L796.9,43.28Z" fill="#353572"/>
    </g>
  </g>
</svg>
